<svg width="11100" height="1245" viewBox="0 0 11100 1245" xmlns="http://www.w3.org/2000/svg">
    <g id="svgGroup" stroke-linecap="round" fill-rule="evenodd" font-size="9pt" stroke="#000" stroke-width="0.25mm" fill="none" style="stroke:#000;stroke-width:0.25mm;fill:none">
        <path d="M 5870 24.79 L 6050 24.79 L 6195 24.79 L 6550 24.79 L 6675 24.79 L 7050 24.79 L 7500 24.79 L 7550 24.79 L 8050 24.79 L 8550 24.79 L 9050 24.79 L 9550 24.79 L 10050 24.79 L 10550 24.79 L 10800 24.79 L 10800 64.79 L 10550 64.79 L 10050 64.79 L 9550 64.79 L 9050 64.79 L 8550 64.79 L 8050 64.79 L 7550 64.79 L 7500 64.79 L 7050 64.79 L 6675 64.79 L 6550 79.112 L 6195 119.79 L 6195 179.79 L 6550 220.468 L 6675 234.79 L 7050 234.79 L 7500 234.79 L 7550 234.79 L 8050 234.79 L 8550 234.79 L 9050 234.79 L 9550 234.79 L 10050 234.79 L 10550 234.79 L 10800 234.79 L 10800 274.79 L 10550 274.79 L 10050 274.79 L 9550 274.79 L 9050 274.79 L 8550 274.79 L 8050 274.79 L 7550 274.79 L 7500 274.79 L 7050 274.79 L 6675 274.79 L 6550 274.79 L 6195 274.79 L 6050 274.79 L 5870 274.79 L 5870 24.79 Z M 5870 1059.596 L 6050 1058.637 L 6195 1057.945 L 6550 1056.56 L 6675 1056.177 L 7050 1055.35 L 7500 1055 L 7550 1055 L 8050 1055 L 8550 1055 L 9050 1055 L 9550 1055 L 10050 1055 L 10550 1055 L 10800 1055 L 10900 1055 L 11050.42 1055 L 11100 1055 L 11100 1245 L 11049.66 1245 L 10900 1245 L 10800 1245 L 10550 1245 L 10050 1245 L 9550 1245 L 9050 1245 L 8550 1245 L 8050 1245 L 7550 1245 L 7500 1245 L 7050 1244.65 L 6675 1243.823 L 6550 1243.44 L 6195 1242.055 L 6050 1241.363 L 5870 1240.404 L 5870 1059.596 Z M 5870 785.79 L 6050 785.79 L 6550 785.79 L 7050 785.79 L 7500 785.79 L 7550 785.79 L 8050 785.79 L 8550 785.79 L 9050 785.79 L 9550 785.79 L 10050 785.79 L 10550 785.79 L 10800 785.79 L 10800 745.79 L 10550 745.79 L 10050 745.79 L 9550 745.79 L 9050 745.79 L 8550 745.79 L 8050 745.79 L 7550 745.79 L 7500 745.79 L 7050 745.79 L 6550 745.79 L 6050 745.79 L 5870 745.79 L 5870 785.79 Z M 5870 535.79 L 6050 535.79 L 6550 535.79 L 7050 535.79 L 7500 535.79 L 7550 535.79 L 8050 535.79 L 8550 535.79 L 9050 535.79 L 9550 535.79 L 10050 535.79 L 10550 535.79 L 10800 535.79 L 10800 575.79 L 10550 575.79 L 10050 575.79 L 9550 575.79 L 9050 575.79 L 8550 575.79 L 8050 575.79 L 7550 575.79 L 7500 575.79 L 7050 575.79 L 6550 575.79 L 6050 575.79 L 5870 575.79 L 5870 535.79 Z M 4370 24.79 L 4425 24.79 L 4495 24.79 L 4745 24.79 L 4905 24.79 L 4995 24.79 L 5120 24.79 L 5120 274.79 L 4995 274.79 L 4905 274.79 L 4745 274.79 L 4495 274.79 L 4425 274.79 L 4370 274.79 L 4370 234.79 L 4425 234.79 L 4495 226.77 L 4745 198.124 L 4905 179.79 L 4905 119.79 L 4745 101.456 L 4495 72.81 L 4425 64.79 L 4370 64.79 L 4370 24.79 Z M 3870 1055.126 L 3995 1055.27 L 4245 1055.719 L 4370 1056.025 L 4425 1056.177 L 4495 1056.385 L 4745 1057.267 L 4905 1057.945 L 4995 1058.366 L 5120 1058.997 L 5120 1241.003 L 4995 1241.634 L 4905 1242.055 L 4745 1242.733 L 4495 1243.615 L 4425 1243.823 L 4370 1243.975 L 4245 1244.281 L 3995 1244.73 L 3870 1244.874 L 3870 1055.126 Z M 3870 785.79 L 3995 785.79 L 4245 785.79 L 4495 785.79 L 4745 785.79 L 4995 785.79 L 5120 785.79 L 5120 745.79 L 4995 745.79 L 4745 745.79 L 4495 745.79 L 4245 745.79 L 3995 745.79 L 3870 745.79 L 3870 785.79 Z M 3870 535.79 L 3995 535.79 L 4245 535.79 L 4495 535.79 L 4745 535.79 L 4995 535.79 L 5120 535.79 L 5120 575.79 L 4995 575.79 L 4745 575.79 L 4495 575.79 L 4245 575.79 L 3995 575.79 L 3870 575.79 L 3870 535.79 Z M 1870 1055 L 1995 1055 L 2245 1055 L 2495 1055 L 2745 1055 L 2870 1055 L 2870 1245 L 2745 1245 L 2495 1245 L 2245 1245 L 1995 1245 L 1870 1245 L 1870 1055 Z M 870 1055 L 995 1055 L 1245 1055 L 1495 1055 L 1745 1055 L 1870 1055 L 1870 1245 L 1745 1245 L 1495 1245 L 1245 1245 L 995 1245 L 870 1245 L 870 1055 Z M 2870 1055 L 2995 1055 L 3245 1055 L 3495 1055 L 3600 1055 L 3745 1055.036 L 3870 1055.126 L 3870 1244.874 L 3745 1244.964 L 3600 1245 L 3495 1245 L 3245 1245 L 2995 1245 L 2870 1245 L 2870 1055 Z M 1870 274.79 L 1995 274.79 L 2245 274.79 L 2495 274.79 L 2745 274.79 L 2870 274.79 L 2870 234.79 L 2745 234.79 L 2495 234.79 L 2245 234.79 L 1995 234.79 L 1870 234.79 L 1870 274.79 Z M 2870 535.79 L 2995 535.79 L 3245 535.79 L 3495 535.79 L 3600 535.79 L 3745 535.79 L 3870 535.79 L 3870 575.79 L 3745 575.79 L 3600 575.79 L 3495 575.79 L 3245 575.79 L 2995 575.79 L 2870 575.79 L 2870 535.79 Z M 1870 24.79 L 1995 24.79 L 2245 24.79 L 2495 24.79 L 2745 24.79 L 2870 24.79 L 2870 64.79 L 2745 64.79 L 2495 64.79 L 2245 64.79 L 1995 64.79 L 1870 64.79 L 1870 24.79 Z M 2870 24.79 L 2995 24.79 L 3245 24.79 L 3495 24.79 L 3600 24.79 L 3745 24.79 L 3870 24.79 L 3870 64.79 L 3745 64.79 L 3600 64.79 L 3495 64.79 L 3245 64.79 L 2995 64.79 L 2870 64.79 L 2870 24.79 Z M 2870 274.79 L 2995 274.79 L 3245 274.79 L 3495 274.79 L 3600 274.79 L 3745 274.79 L 3870 274.79 L 3870 234.79 L 3745 234.79 L 3600 234.79 L 3495 234.79 L 3245 234.79 L 2995 234.79 L 2870 234.79 L 2870 274.79 Z M 2870 785.79 L 2995 785.79 L 3245 785.79 L 3495 785.79 L 3600 785.79 L 3745 785.79 L 3870 785.79 L 3870 745.79 L 3745 745.79 L 3600 745.79 L 3495 745.79 L 3245 745.79 L 2995 745.79 L 2870 745.79 L 2870 785.79 Z M 1870 785.79 L 1995 785.79 L 2245 785.79 L 2495 785.79 L 2745 785.79 L 2870 785.79 L 2870 745.79 L 2745 745.79 L 2495 745.79 L 2245 745.79 L 1995 745.79 L 1870 745.79 L 1870 785.79 Z M 870 274.79 L 995 274.79 L 1245 274.79 L 1495 274.79 L 1745 274.79 L 1870 274.79 L 1870 234.79 L 1745 234.79 L 1495 234.79 L 1245 234.79 L 995 234.79 L 870 234.79 L 870 274.79 Z M 870 785.79 L 995 785.79 L 1245 785.79 L 1495 785.79 L 1745 785.79 L 1870 785.79 L 1870 745.79 L 1745 745.79 L 1495 745.79 L 1245 745.79 L 995 745.79 L 870 745.79 L 870 785.79 Z M 870 24.79 L 995 24.79 L 1245 24.79 L 1495 24.79 L 1745 24.79 L 1870 24.79 L 1870 64.79 L 1745 64.79 L 1495 64.79 L 1245 64.79 L 995 64.79 L 870 64.79 L 870 24.79 Z M 870 535.79 L 995 535.79 L 1245 535.79 L 1495 535.79 L 1745 535.79 L 1870 535.79 L 1870 575.79 L 1745 575.79 L 1495 575.79 L 1245 575.79 L 995 575.79 L 870 575.79 L 870 535.79 Z M 1870 535.79 L 1995 535.79 L 2245 535.79 L 2495 535.79 L 2745 535.79 L 2870 535.79 L 2870 575.79 L 2745 575.79 L 2495 575.79 L 2245 575.79 L 1995 575.79 L 1870 575.79 L 1870 535.79 Z M 5120 24.79 L 5245 24.79 L 5300 24.79 L 5550 24.79 L 5800 24.79 L 5870 24.79 L 5870 274.79 L 5800 274.79 L 5550 274.79 L 5300 274.79 L 5245 274.79 L 5120 274.79 L 5120 24.79 Z M 5120 1058.997 L 5245 1059.681 L 5300 1060 L 5550 1060 L 5800 1060 L 5870 1059.596 L 5870 1240.404 L 5800 1240 L 5550 1240 L 5300 1240 L 5245 1240.319 L 5120 1241.003 L 5120 1058.997 Z M 0 1055 L 50 1055 L 161.3 1055 L 200 1055 L 272.5 1055 L 300 1055 L 383.7 1055 L 495 1055 L 620 1055 L 620 1245 L 495 1245 L 383.7 1245 L 300 1245 L 272.5 1245 L 200 1245 L 161.3 1245 L 50 1245 L 0 1245 L 0 1055 Z M 5120 785.79 L 5245 785.79 L 5300 785.79 L 5550 785.79 L 5800 785.79 L 5870 785.79 L 5870 745.79 L 5800 745.79 L 5550 745.79 L 5300 745.79 L 5245 745.79 L 5120 745.79 L 5120 785.79 Z M 5120 535.79 L 5245 535.79 L 5300 535.79 L 5550 535.79 L 5800 535.79 L 5870 535.79 L 5870 575.79 L 5800 575.79 L 5550 575.79 L 5300 575.79 L 5245 575.79 L 5120 575.79 L 5120 535.79 Z M 300 785.79 L 383.7 785.79 L 495 785.79 L 745 785.79 L 870 785.79 L 870 745.79 L 745 745.79 L 495 745.79 L 383.7 745.79 L 300 745.79 L 300 785.79 Z M 300 274.79 L 383.7 274.79 L 495 274.79 L 620 274.79 L 745 274.79 L 870 274.79 L 870 234.79 L 745 234.79 L 620 234.79 L 495 234.79 L 383.7 234.79 L 300 234.79 L 300 274.79 Z M 300 535.79 L 383.7 535.79 L 495 535.79 L 745 535.79 L 870 535.79 L 870 575.79 L 745 575.79 L 495 575.79 L 383.7 575.79 L 300 575.79 L 300 535.79 Z M 300 24.79 L 383.7 24.79 L 495 24.79 L 620 24.79 L 745 24.79 L 870 24.79 L 870 64.79 L 745 64.79 L 620 64.79 L 495 64.79 L 383.7 64.79 L 300 64.79 L 300 24.79 Z M 3870 274.79 L 3995 274.79 L 4245 274.79 L 4370 274.79 L 4370 234.79 L 4245 234.79 L 3995 234.79 L 3870 234.79 L 3870 274.79 Z M 3870 24.79 L 3995 24.79 L 4245 24.79 L 4370 24.79 L 4370 64.79 L 4245 64.79 L 3995 64.79 L 3870 64.79 L 3870 24.79 Z M 620 1055 L 745 1055 L 870 1055 L 870 1245 L 745 1245 L 620 1245 L 620 1055 Z M 10900 26.794 L 11050.535 26.293 L 11100 26.794 L 11100 66.794 L 11050.375 66.293 L 10900 66.794 L 10900 26.794 Z M 10900 272.794 L 11049.547 273.293 L 11100 272.794 L 11100 232.794 L 11049.707 233.293 L 10900 232.794 L 10900 272.794 Z M 10900 783.794 L 11047.505 783.794 L 11100 783.794 L 11100 743.794 L 11047.665 743.794 L 10900 743.794 L 10900 783.794 Z M 10900 537.794 L 11048.489 537.794 L 11100 537.794 L 11100 577.794 L 11048.329 577.794 L 10900 577.794 L 10900 537.794 Z M 0 783.794 L 50 783.794 L 161.3 783.794 L 200 783.794 L 200 743.794 L 161.3 743.794 L 50 743.794 L 0 743.794 L 0 783.794 Z M 0 537.794 L 50 537.794 L 161.3 537.794 L 200 537.794 L 200 577.794 L 161.3 577.794 L 50 577.794 L 0 577.794 L 0 537.794 Z M 0 272.794 L 50 272.794 L 161.3 272.794 L 200 272.794 L 200 232.794 L 161.3 232.794 L 50 232.794 L 0 232.794 L 0 272.794 Z M 0 26.794 L 50 26.794 L 161.3 26.794 L 200 26.794 L 200 66.794 L 161.3 66.794 L 50 66.794 L 0 66.794 L 0 26.794 Z M 10800 24.79 L 10900 26.794 L 10900 66.794 L 10800 64.79 L 10800 24.79 Z M 10800 535.79 L 10900 537.794 L 10900 577.794 L 10800 575.79 L 10800 535.79 Z M 200 26.794 L 272.5 25.341 L 300 24.79 L 300 64.79 L 272.5 65.341 L 200 66.794 L 200 26.794 Z M 200 537.794 L 272.5 536.341 L 300 535.79 L 300 575.79 L 272.5 576.341 L 200 577.794 L 200 537.794 Z M 10800 785.79 L 10900 783.794 L 10900 743.794 L 10800 745.79 L 10800 785.79 Z M 10800 274.79 L 10900 272.794 L 10900 232.794 L 10800 234.79 L 10800 274.79 Z M 200 272.794 L 272.5 274.242 L 300 274.79 L 300 234.79 L 272.5 234.242 L 200 232.794 L 200 272.794 Z M 200 783.794 L 272.5 785.242 L 300 785.79 L 300 745.79 L 272.5 745.242 L 200 743.794 L 200 783.794 Z" id="aqua" stroke="aqua" style="stroke:aqua" vector-effect="non-scaling-stroke" />
        <path d="M 766.291 244.667 L 983.226 66.501 L 973.709 54.913 L 756.774 233.079 L 766.291 244.667 Z M 766.291 755.667 L 983.226 577.501 L 973.709 565.913 L 756.774 744.079 L 766.291 755.667 Z M 1266.291 755.667 L 1483.226 577.501 L 1473.709 565.913 L 1256.774 744.079 L 1266.291 755.667 Z M 1266.291 244.667 L 1483.226 66.501 L 1473.709 54.913 L 1256.774 233.079 L 1266.291 244.667 Z M 1766.291 244.667 L 1983.226 66.501 L 1973.709 54.913 L 1756.774 233.079 L 1766.291 244.667 Z M 1766.291 755.667 L 1983.226 577.501 L 1973.709 565.913 L 1756.774 744.079 L 1766.291 755.667 Z M 2266.291 755.667 L 2483.226 577.502 L 2473.709 565.913 L 2256.774 744.078 L 2266.291 755.667 Z M 2266.291 244.667 L 2483.226 66.502 L 2473.709 54.913 L 2256.774 233.078 L 2266.291 244.667 Z M 2766.291 244.667 L 2983.226 66.502 L 2973.709 54.913 L 2756.774 233.078 L 2766.291 244.667 Z M 2766.291 755.667 L 2983.226 577.502 L 2973.709 565.913 L 2756.774 744.078 L 2766.291 755.667 Z M 3266.291 755.667 L 3483.226 577.502 L 3473.709 565.913 L 3256.774 744.078 L 3266.291 755.667 Z M 3266.291 244.667 L 3483.226 66.502 L 3473.709 54.913 L 3256.774 233.078 L 3266.291 244.667 Z M 3766.291 244.667 L 3983.226 66.502 L 3973.709 54.913 L 3756.774 233.078 L 3766.291 244.667 Z M 3766.291 755.667 L 3983.226 577.502 L 3973.709 565.913 L 3756.774 744.078 L 3766.291 755.667 Z M 4266.292 244.666 L 4483.226 66.502 L 4473.708 54.914 L 4256.774 233.078 L 4266.292 244.666 Z M 4266.292 755.666 L 4483.226 577.502 L 4473.708 565.914 L 4256.774 744.078 L 4266.292 755.666 Z M 4766.292 244.666 L 4983.226 66.502 L 4973.708 54.914 L 4756.774 233.078 L 4766.292 244.666 Z M 4766.292 755.666 L 4983.226 577.502 L 4973.708 565.914 L 4756.774 744.078 L 4766.292 755.666 Z M 4506.777 66.507 L 4723.702 244.664 L 4733.223 233.073 L 4516.298 54.916 L 4506.777 66.507 Z M 4506.777 577.507 L 4723.702 755.664 L 4733.223 744.073 L 4516.298 565.916 L 4506.777 577.507 Z M 4006.777 66.507 L 4223.702 244.664 L 4233.223 233.073 L 4016.298 54.916 L 4006.777 66.507 Z M 4006.777 577.507 L 4223.702 755.664 L 4233.223 744.073 L 4016.298 565.916 L 4006.777 577.507 Z M 3506.777 577.507 L 3723.702 755.664 L 3733.223 744.073 L 3516.298 565.916 L 3506.777 577.507 Z M 3506.777 66.507 L 3723.702 244.664 L 3733.223 233.073 L 3516.298 54.916 L 3506.777 66.507 Z M 3006.777 66.507 L 3223.702 244.664 L 3233.223 233.073 L 3016.298 54.916 L 3006.777 66.507 Z M 3006.777 577.507 L 3223.702 755.664 L 3233.223 744.073 L 3016.298 565.916 L 3006.777 577.507 Z M 2506.777 577.507 L 2723.702 755.664 L 2733.223 744.073 L 2516.298 565.916 L 2506.777 577.507 Z M 2506.777 66.507 L 2723.702 244.664 L 2733.223 233.073 L 2516.298 54.916 L 2506.777 66.507 Z M 2006.777 66.507 L 2223.702 244.664 L 2233.223 233.073 L 2016.298 54.916 L 2006.777 66.507 Z M 2006.777 577.507 L 2223.702 755.664 L 2233.223 744.073 L 2016.298 565.916 L 2006.777 577.507 Z M 1506.777 66.507 L 1723.702 244.664 L 1733.223 233.073 L 1516.298 54.916 L 1506.777 66.507 Z M 1506.777 577.507 L 1723.702 755.664 L 1733.223 744.073 L 1516.298 565.916 L 1506.777 577.507 Z M 1006.777 66.507 L 1223.702 244.664 L 1233.223 233.073 L 1016.298 54.916 L 1006.777 66.507 Z M 1006.777 577.507 L 1223.702 755.664 L 1233.223 744.073 L 1016.298 565.916 L 1006.777 577.507 Z M 506.777 577.507 L 723.702 755.664 L 733.223 744.073 L 516.298 565.916 L 506.777 577.507 Z M 506.777 66.507 L 723.702 244.664 L 733.223 233.073 L 516.298 54.916 L 506.777 66.507 Z M 761.247 238.525 L 978.182 60.36 L 978.753 61.055 L 761.818 239.22 L 761.247 238.525 Z M 761.247 749.525 L 978.182 571.36 L 978.753 572.055 L 761.818 750.22 L 761.247 749.525 Z M 1261.247 238.525 L 1478.182 60.36 L 1478.753 61.055 L 1261.818 239.22 L 1261.247 238.525 Z M 1261.247 749.525 L 1478.182 571.36 L 1478.753 572.055 L 1261.818 750.22 L 1261.247 749.525 Z M 1761.247 238.525 L 1978.182 60.36 L 1978.753 61.055 L 1761.818 239.22 L 1761.247 238.525 Z M 1761.247 749.525 L 1978.182 571.36 L 1978.753 572.055 L 1761.818 750.22 L 1761.247 749.525 Z M 2261.247 238.525 L 2478.182 60.36 L 2478.753 61.055 L 2261.818 239.22 L 2261.247 238.525 Z M 2261.247 749.525 L 2478.182 571.36 L 2478.753 572.055 L 2261.818 750.22 L 2261.247 749.525 Z M 2761.247 238.525 L 2978.182 60.36 L 2978.753 61.055 L 2761.818 239.22 L 2761.247 238.525 Z M 2761.247 749.525 L 2978.182 571.36 L 2978.753 572.055 L 2761.818 750.22 L 2761.247 749.525 Z M 3261.247 238.525 L 3478.182 60.36 L 3478.753 61.055 L 3261.818 239.22 L 3261.247 238.525 Z M 3261.247 749.525 L 3478.182 571.36 L 3478.753 572.055 L 3261.818 750.22 L 3261.247 749.525 Z M 3761.247 238.525 L 3978.182 60.36 L 3978.753 61.055 L 3761.818 239.22 L 3761.247 238.525 Z M 3761.247 749.525 L 3978.182 571.36 L 3978.753 572.055 L 3761.818 750.22 L 3761.247 749.525 Z M 4261.247 749.525 L 4478.182 571.36 L 4478.753 572.055 L 4261.818 750.22 L 4261.247 749.525 Z M 4261.247 238.525 L 4478.182 60.36 L 4478.753 61.055 L 4261.818 239.22 L 4261.247 238.525 Z M 4761.247 238.525 L 4978.182 60.36 L 4978.753 61.055 L 4761.818 239.22 L 4761.247 238.525 Z M 4761.247 749.525 L 4978.182 571.36 L 4978.753 572.055 L 4761.818 750.22 L 4761.247 749.525 Z M 4511.823 60.364 L 4728.748 238.521 L 4728.177 239.216 L 4511.252 61.059 L 4511.823 60.364 Z M 4511.823 571.364 L 4728.748 749.521 L 4728.177 750.216 L 4511.252 572.059 L 4511.823 571.364 Z M 4011.823 60.364 L 4228.748 238.521 L 4228.177 239.216 L 4011.252 61.059 L 4011.823 60.364 Z M 4011.823 571.364 L 4228.748 749.521 L 4228.177 750.216 L 4011.252 572.059 L 4011.823 571.364 Z M 3511.823 571.364 L 3728.748 749.521 L 3728.177 750.216 L 3511.252 572.059 L 3511.823 571.364 Z M 3511.823 60.364 L 3728.748 238.521 L 3728.177 239.216 L 3511.252 61.059 L 3511.823 60.364 Z M 3011.823 60.364 L 3228.748 238.521 L 3228.177 239.216 L 3011.252 61.059 L 3011.823 60.364 Z M 3011.823 571.364 L 3228.748 749.521 L 3228.177 750.216 L 3011.252 572.059 L 3011.823 571.364 Z M 2511.823 60.364 L 2728.748 238.521 L 2728.177 239.216 L 2511.252 61.059 L 2511.823 60.364 Z M 2511.823 571.364 L 2728.748 749.521 L 2728.177 750.216 L 2511.252 572.059 L 2511.823 571.364 Z M 2011.823 60.364 L 2228.748 238.521 L 2228.177 239.216 L 2011.252 61.059 L 2011.823 60.364 Z M 2011.823 571.364 L 2228.748 749.521 L 2228.177 750.216 L 2011.252 572.059 L 2011.823 571.364 Z M 1511.823 571.364 L 1728.748 749.521 L 1728.177 750.216 L 1511.252 572.059 L 1511.823 571.364 Z M 1511.823 60.364 L 1728.748 238.521 L 1728.177 239.216 L 1511.252 61.059 L 1511.823 60.364 Z M 1011.823 571.364 L 1228.748 749.521 L 1228.177 750.216 L 1011.252 572.059 L 1011.823 571.364 Z M 1011.823 60.364 L 1228.748 238.521 L 1228.177 239.216 L 1011.252 61.059 L 1011.823 60.364 Z M 511.823 60.364 L 728.748 238.521 L 728.177 239.216 L 511.252 61.059 L 511.823 60.364 Z M 511.823 571.364 L 728.748 749.521 L 728.177 750.216 L 511.252 572.059 L 511.823 571.364 Z M 293.305 753.937 L 484.343 578.121 L 474.195 567.094 L 283.157 742.911 L 293.305 753.937 Z M 293.305 242.937 L 484.343 67.121 L 474.195 56.094 L 283.157 231.911 L 293.305 242.937 Z M 60.754 580.07 L 251.654 754.04 L 261.746 742.965 L 70.846 568.995 L 60.754 580.07 Z M 60.754 69.07 L 251.654 243.04 L 261.746 231.965 L 70.846 57.995 L 60.754 69.07 Z M 287.927 748.093 L 478.964 572.277 L 479.573 572.938 L 288.536 748.755 L 287.927 748.093 Z M 287.927 237.093 L 478.964 61.277 L 479.573 61.938 L 288.536 237.755 L 287.927 237.093 Z M 66.103 574.2 L 257.003 748.17 L 256.397 748.835 L 65.497 574.865 L 66.103 574.2 Z M 66.103 63.2 L 257.003 237.17 L 256.397 237.835 L 65.497 63.865 L 66.103 63.2 Z M 5576 575.79 L 5524 575.79 L 5524 745.79 L 5576 745.79 L 5576 575.79 Z M 11076.375 66.293 L 11024.375 66.293 L 11023.707 233.293 L 11075.707 233.293 L 11076.375 66.293 Z M 11074.329 577.794 L 11022.329 577.794 L 11021.665 743.794 L 11073.665 743.794 L 11074.329 577.794 Z M 76 66.794 L 24 66.794 L 24 232.794 L 76 232.794 L 76 66.794 Z M 76 577.794 L 24 577.794 L 24 743.794 L 76 743.794 L 76 577.794 Z M 2245.7 563.011 L 2245.7 758.614 L 2255.7 758.614 L 2255.7 563.011 L 2245.7 563.011 Z M 3745.7 52.011 L 3745.7 247.614 L 3755.7 247.614 L 3755.7 52.011 L 3745.7 52.011 Z M 3745.7 563.011 L 3745.7 758.614 L 3755.7 758.614 L 3755.7 563.011 L 3745.7 563.011 Z M 2245.7 52.011 L 2245.7 247.614 L 2255.7 247.614 L 2255.7 52.011 L 2245.7 52.011 Z M 2745.7 52.011 L 2745.7 247.614 L 2755.7 247.614 L 2755.7 52.011 L 2745.7 52.011 Z M 1245.7 52.011 L 1245.7 247.614 L 1255.7 247.614 L 1255.7 52.011 L 1245.7 52.011 Z M 1745.7 52.011 L 1745.7 247.614 L 1755.7 247.614 L 1755.7 52.011 L 1745.7 52.011 Z M 1745.7 563.011 L 1745.7 758.614 L 1755.7 758.614 L 1755.7 563.011 L 1745.7 563.011 Z M 1245.7 563.011 L 1245.7 758.614 L 1255.7 758.614 L 1255.7 563.011 L 1245.7 563.011 Z M 2745.7 563.011 L 2745.7 758.614 L 2755.7 758.614 L 2755.7 563.011 L 2745.7 563.011 Z M 745.7 52.011 L 745.7 247.614 L 755.7 247.614 L 755.7 52.011 L 745.7 52.011 Z M 745.7 563.011 L 745.7 758.614 L 755.7 758.614 L 755.7 563.011 L 745.7 563.011 Z M 4745.7 563.011 L 4745.7 758.614 L 4755.7 758.614 L 4755.7 563.011 L 4745.7 563.011 Z M 4745.7 52.011 L 4745.7 247.614 L 4755.7 247.614 L 4755.7 52.011 L 4745.7 52.011 Z M 3245.7 52.011 L 3245.7 247.614 L 3255.7 247.614 L 3255.7 52.011 L 3245.7 52.011 Z M 4245.7 52.011 L 4245.7 247.614 L 4255.7 247.614 L 4255.7 52.011 L 4245.7 52.011 Z M 3245.7 563.011 L 3245.7 758.614 L 3255.7 758.614 L 3255.7 563.011 L 3245.7 563.011 Z M 4245.7 563.011 L 4245.7 758.614 L 4255.7 758.614 L 4255.7 563.011 L 4245.7 563.011 Z M 273.2 563.562 L 273.2 758.065 L 283.2 758.065 L 283.2 563.562 L 273.2 563.562 Z M 273.2 52.562 L 273.2 247.065 L 283.2 247.065 L 283.2 52.562 L 273.2 52.562 Z M 4245.7 563.213 L 4245.7 758.816 L 4246.7 758.816 L 4246.7 563.213 L 4245.7 563.213 Z M 4245.7 52.213 L 4245.7 247.816 L 4246.7 247.816 L 4246.7 52.213 L 4245.7 52.213 Z M 3245.7 563.213 L 3245.7 758.816 L 3246.7 758.816 L 3246.7 563.213 L 3245.7 563.213 Z M 1745.7 52.213 L 1745.7 247.816 L 1746.7 247.816 L 1746.7 52.213 L 1745.7 52.213 Z M 2745.7 52.213 L 2745.7 247.816 L 2746.7 247.816 L 2746.7 52.213 L 2745.7 52.213 Z M 3245.7 52.213 L 3245.7 247.816 L 3246.7 247.816 L 3246.7 52.213 L 3245.7 52.213 Z M 745.7 563.213 L 745.7 758.816 L 746.7 758.816 L 746.7 563.213 L 745.7 563.213 Z M 1745.7 563.213 L 1745.7 758.816 L 1746.7 758.816 L 1746.7 563.213 L 1745.7 563.213 Z M 3745.7 52.213 L 3745.7 247.816 L 3746.7 247.816 L 3746.7 52.213 L 3745.7 52.213 Z M 745.7 52.213 L 745.7 247.816 L 746.7 247.816 L 746.7 52.213 L 745.7 52.213 Z M 1245.7 563.213 L 1245.7 758.816 L 1246.7 758.816 L 1246.7 563.213 L 1245.7 563.213 Z M 4745.7 563.213 L 4745.7 758.816 L 4746.7 758.816 L 4746.7 563.213 L 4745.7 563.213 Z M 1245.7 52.213 L 1245.7 247.816 L 1246.7 247.816 L 1246.7 52.213 L 1245.7 52.213 Z M 2245.7 563.213 L 2245.7 758.816 L 2246.7 758.816 L 2246.7 563.213 L 2245.7 563.213 Z M 3745.7 563.213 L 3745.7 758.816 L 3746.7 758.816 L 3746.7 563.213 L 3745.7 563.213 Z M 2745.7 563.213 L 2745.7 758.816 L 2746.7 758.816 L 2746.7 563.213 L 2745.7 563.213 Z M 2245.7 52.213 L 2245.7 247.816 L 2246.7 247.816 L 2246.7 52.213 L 2245.7 52.213 Z M 4745.7 52.213 L 4745.7 247.816 L 4746.7 247.816 L 4746.7 52.213 L 4745.7 52.213 Z M 273.2 563.765 L 273.2 758.268 L 274.2 758.268 L 274.2 563.765 L 273.2 563.765 Z M 273.2 52.765 L 273.2 247.268 L 274.2 247.268 L 274.2 52.765 L 273.2 52.765 Z M 2487.5 64.79 L 2487.5 234.79 L 2502.5 234.79 L 2502.5 64.79 L 2487.5 64.79 Z M 2987.5 575.79 L 2987.5 745.79 L 3002.5 745.79 L 3002.5 575.79 L 2987.5 575.79 Z M 1487.5 575.79 L 1487.5 745.79 L 1502.5 745.79 L 1502.5 575.79 L 1487.5 575.79 Z M 4987.5 575.79 L 4987.5 745.79 L 5002.5 745.79 L 5002.5 575.79 L 4987.5 575.79 Z M 3987.5 575.79 L 3987.5 745.79 L 4002.5 745.79 L 4002.5 575.79 L 3987.5 575.79 Z M 487.5 64.79 L 487.5 234.79 L 502.5 234.79 L 502.5 64.79 L 487.5 64.79 Z M 487.5 575.79 L 487.5 745.79 L 502.5 745.79 L 502.5 575.79 L 487.5 575.79 Z M 987.5 64.79 L 987.5 234.79 L 1002.5 234.79 L 1002.5 64.79 L 987.5 64.79 Z M 2987.5 64.79 L 2987.5 234.79 L 3002.5 234.79 L 3002.5 64.79 L 2987.5 64.79 Z M 987.5 575.79 L 987.5 745.79 L 1002.5 745.79 L 1002.5 575.79 L 987.5 575.79 Z M 1987.5 64.79 L 1987.5 234.79 L 2002.5 234.79 L 2002.5 64.79 L 1987.5 64.79 Z M 3487.5 64.79 L 3487.5 234.79 L 3502.5 234.79 L 3502.5 64.79 L 3487.5 64.79 Z M 1987.5 575.79 L 1987.5 745.79 L 2002.5 745.79 L 2002.5 575.79 L 1987.5 575.79 Z M 2487.5 575.79 L 2487.5 745.79 L 2502.5 745.79 L 2502.5 575.79 L 2487.5 575.79 Z M 1487.5 64.79 L 1487.5 234.79 L 1502.5 234.79 L 1502.5 64.79 L 1487.5 64.79 Z M 3987.5 64.79 L 3987.5 234.79 L 4002.5 234.79 L 4002.5 64.79 L 3987.5 64.79 Z M 3487.5 575.79 L 3487.5 745.79 L 3502.5 745.79 L 3502.5 575.79 L 3487.5 575.79 Z M 4487.5 575.79 L 4487.5 745.79 L 4502.5 745.79 L 4502.5 575.79 L 4487.5 575.79 Z M 4487.5 72.81 L 4487.5 226.77 L 4502.5 226.77 L 4502.5 72.81 L 4487.5 72.81 Z M 2710 222.45 L 2710 252.45 L 2740.8 252.45 L 2742.5 232.45 L 2742.69 231.494 L 2743.232 230.683 L 2744.043 230.141 L 2745 229.95 L 2745.957 230.141 L 2746.768 230.683 L 2747.31 231.494 L 2747.5 232.45 L 2749.2 252.45 L 2780 252.45 L 2780 222.45 L 2710 222.45 Z M 2210 222.45 L 2210 252.45 L 2240.8 252.45 L 2242.5 232.45 L 2242.69 231.494 L 2243.232 230.683 L 2244.043 230.141 L 2245 229.95 L 2245.957 230.141 L 2246.768 230.683 L 2247.31 231.494 L 2247.5 232.45 L 2249.2 252.45 L 2280 252.45 L 2280 222.45 L 2210 222.45 Z M 2210 733.45 L 2210 763.45 L 2240.8 763.45 L 2242.5 743.45 L 2242.69 742.494 L 2243.232 741.683 L 2244.043 741.141 L 2245 740.95 L 2245.957 741.141 L 2246.768 741.683 L 2247.31 742.494 L 2247.5 743.45 L 2249.2 763.45 L 2280 763.45 L 2280 733.45 L 2210 733.45 Z M 2710 733.45 L 2710 763.45 L 2740.8 763.45 L 2742.5 743.45 L 2742.69 742.494 L 2743.232 741.683 L 2744.043 741.141 L 2745 740.95 L 2745.957 741.141 L 2746.768 741.683 L 2747.31 742.494 L 2747.5 743.45 L 2749.2 763.45 L 2780 763.45 L 2780 733.45 L 2710 733.45 Z M 4710 733.45 L 4710 763.45 L 4740.8 763.45 L 4742.5 743.45 L 4742.69 742.494 L 4743.232 741.683 L 4744.043 741.141 L 4745 740.95 L 4745.957 741.141 L 4746.768 741.683 L 4747.31 742.494 L 4747.5 743.45 L 4749.2 763.45 L 4780 763.45 L 4780 733.45 L 4710 733.45 Z M 1710 733.45 L 1710 763.45 L 1740.8 763.45 L 1742.5 743.45 L 1742.69 742.494 L 1743.232 741.683 L 1744.043 741.141 L 1745 740.95 L 1745.957 741.141 L 1746.768 741.683 L 1747.31 742.494 L 1747.5 743.45 L 1749.2 763.45 L 1780 763.45 L 1780 733.45 L 1710 733.45 Z M 1710 222.45 L 1710 252.45 L 1740.8 252.45 L 1742.5 232.45 L 1742.69 231.494 L 1743.232 230.683 L 1744.043 230.141 L 1745 229.95 L 1745.957 230.141 L 1746.768 230.683 L 1747.31 231.494 L 1747.5 232.45 L 1749.2 252.45 L 1780 252.45 L 1780 222.45 L 1710 222.45 Z M 1210 733.45 L 1210 763.45 L 1240.8 763.45 L 1242.5 743.45 L 1242.69 742.494 L 1243.232 741.683 L 1244.043 741.141 L 1245 740.95 L 1245.957 741.141 L 1246.768 741.683 L 1247.31 742.494 L 1247.5 743.45 L 1249.2 763.45 L 1280 763.45 L 1280 733.45 L 1210 733.45 Z M 710 222.45 L 710 252.45 L 740.8 252.45 L 742.5 232.45 L 742.69 231.494 L 743.232 230.683 L 744.043 230.141 L 745 229.95 L 745.957 230.141 L 746.768 230.683 L 747.31 231.494 L 747.5 232.45 L 749.2 252.45 L 780 252.45 L 780 222.45 L 710 222.45 Z M 4710 222.45 L 4710 252.45 L 4740.8 252.45 L 4742.5 232.45 L 4742.69 231.494 L 4743.232 230.683 L 4744.043 230.141 L 4745 229.95 L 4745.957 230.141 L 4746.768 230.683 L 4747.31 231.494 L 4747.5 232.45 L 4749.2 252.45 L 4780 252.45 L 4780 222.45 L 4710 222.45 Z M 710 733.45 L 710 763.45 L 740.8 763.45 L 742.5 743.45 L 742.69 742.494 L 743.232 741.683 L 744.043 741.141 L 745 740.95 L 745.957 741.141 L 746.768 741.683 L 747.31 742.494 L 747.5 743.45 L 749.2 763.45 L 780 763.45 L 780 733.45 L 710 733.45 Z M 3210 733.45 L 3210 763.45 L 3240.8 763.45 L 3242.5 743.45 L 3242.69 742.494 L 3243.232 741.683 L 3244.043 741.141 L 3245 740.95 L 3245.957 741.141 L 3246.768 741.683 L 3247.31 742.494 L 3247.5 743.45 L 3249.2 763.45 L 3280 763.45 L 3280 733.45 L 3210 733.45 Z M 3710 222.45 L 3710 252.45 L 3740.8 252.45 L 3742.5 232.45 L 3742.69 231.494 L 3743.232 230.683 L 3744.043 230.141 L 3745 229.95 L 3745.957 230.141 L 3746.768 230.683 L 3747.31 231.494 L 3747.5 232.45 L 3749.2 252.45 L 3780 252.45 L 3780 222.45 L 3710 222.45 Z M 1210 222.45 L 1210 252.45 L 1240.8 252.45 L 1242.5 232.45 L 1242.69 231.494 L 1243.232 230.683 L 1244.043 230.141 L 1245 229.95 L 1245.957 230.141 L 1246.768 230.683 L 1247.31 231.494 L 1247.5 232.45 L 1249.2 252.45 L 1280 252.45 L 1280 222.45 L 1210 222.45 Z M 3710 733.45 L 3710 763.45 L 3740.8 763.45 L 3742.5 743.45 L 3742.69 742.494 L 3743.232 741.683 L 3744.043 741.141 L 3745 740.95 L 3745.957 741.141 L 3746.768 741.683 L 3747.31 742.494 L 3747.5 743.45 L 3749.2 763.45 L 3780 763.45 L 3780 733.45 L 3710 733.45 Z M 4210 222.45 L 4210 252.45 L 4240.8 252.45 L 4242.5 232.45 L 4242.69 231.494 L 4243.232 230.683 L 4244.043 230.141 L 4245 229.95 L 4245.957 230.141 L 4246.768 230.683 L 4247.31 231.494 L 4247.5 232.45 L 4249.2 252.45 L 4280 252.45 L 4280 222.45 L 4210 222.45 Z M 3210 222.45 L 3210 252.45 L 3240.8 252.45 L 3242.5 232.45 L 3242.69 231.494 L 3243.232 230.683 L 3244.043 230.141 L 3245 229.95 L 3245.957 230.141 L 3246.768 230.683 L 3247.31 231.494 L 3247.5 232.45 L 3249.2 252.45 L 3280 252.45 L 3280 222.45 L 3210 222.45 Z M 4210 733.45 L 4210 763.45 L 4240.8 763.45 L 4242.5 743.45 L 4242.69 742.494 L 4243.232 741.683 L 4244.043 741.141 L 4245 740.95 L 4245.957 741.141 L 4246.768 741.683 L 4247.31 742.494 L 4247.5 743.45 L 4249.2 763.45 L 4280 763.45 L 4280 733.45 L 4210 733.45 Z M 237.5 221.902 L 237.5 251.902 L 268.3 251.902 L 270 231.902 L 270.19 230.945 L 270.732 230.134 L 271.543 229.592 L 272.5 229.402 L 273.457 229.592 L 274.268 230.134 L 274.81 230.945 L 275 231.902 L 276.7 251.902 L 307.5 251.902 L 307.5 221.902 L 237.5 221.902 Z M 237.5 732.902 L 237.5 762.902 L 268.3 762.902 L 270 742.902 L 270.19 741.945 L 270.732 741.134 L 271.543 740.592 L 272.5 740.402 L 273.457 740.592 L 274.268 741.134 L 274.81 741.945 L 275 742.902 L 276.7 762.902 L 307.5 762.902 L 307.5 732.902 L 237.5 732.902 Z M 2960 557.99 L 2960 592.983 L 3030 592.983 L 3030 557.99 L 2960 557.99 Z M 2960 46.99 L 2960 81.983 L 3030 81.983 L 3030 46.99 L 2960 46.99 Z M 4960 46.99 L 4960 81.983 L 5030 81.983 L 5030 46.99 L 4960 46.99 Z M 3960 557.99 L 3960 592.983 L 4030 592.983 L 4030 557.99 L 3960 557.99 Z M 1960 557.99 L 1960 592.983 L 2030 592.983 L 2030 557.99 L 1960 557.99 Z M 960 46.99 L 960 81.983 L 1030 81.983 L 1030 46.99 L 960 46.99 Z M 3960 46.99 L 3960 81.983 L 4030 81.983 L 4030 46.99 L 3960 46.99 Z M 960 557.99 L 960 592.983 L 1030 592.983 L 1030 557.99 L 960 557.99 Z M 1460 46.99 L 1460 81.983 L 1530 81.983 L 1530 46.99 L 1460 46.99 Z M 460 46.99 L 460 81.983 L 530 81.983 L 530 46.99 L 460 46.99 Z M 1460 557.99 L 1460 592.983 L 1530 592.983 L 1530 557.99 L 1460 557.99 Z M 460 557.99 L 460 592.983 L 530 592.983 L 530 557.99 L 460 557.99 Z M 1960 46.99 L 1960 81.983 L 2030 81.983 L 2030 46.99 L 1960 46.99 Z M 3460 557.99 L 3460 592.983 L 3530 592.983 L 3530 557.99 L 3460 557.99 Z M 4460 46.99 L 4460 81.983 L 4530 81.983 L 4530 46.99 L 4460 46.99 Z M 2460 46.99 L 2460 81.983 L 2530 81.983 L 2530 46.99 L 2460 46.99 Z M 3460 46.99 L 3460 81.983 L 3530 81.983 L 3530 46.99 L 3460 46.99 Z M 2460 557.99 L 2460 592.983 L 2530 592.983 L 2530 557.99 L 2460 557.99 Z M 4960 557.99 L 4960 592.983 L 5030 592.983 L 5030 557.99 L 4960 557.99 Z M 4460 557.99 L 4460 592.983 L 4530 592.983 L 4530 557.99 L 4460 557.99 Z" id="lime" stroke="lime" style="stroke:lime" vector-effect="non-scaling-stroke" />
        <path d="M 30 10 A 10 10 0 0 0 40 20 L 60 20 A 10 10 0 0 0 70 10 A 10 10 0 0 0 60 0 L 40 0 A 10 10 0 0 0 30 10 Z M 5530 10 A 10 10 0 0 0 5540 20 L 5560 20 A 10 10 0 0 0 5570 10 A 10 10 0 0 0 5560 0 L 5540 0 A 10 10 0 0 0 5530 10 Z M 11030.04 10 A 10 10 0 0 0 11040.04 20 L 11060.04 20 A 10 10 0 0 0 11070.04 10 A 10 10 0 0 0 11060.04 0 L 11040.04 0 A 10 10 0 0 0 11030.04 10 Z M 30 521 A 10 10 0 0 0 40 531 L 60 531 A 10 10 0 0 0 70 521 A 10 10 0 0 0 60 511 L 40 511 A 10 10 0 0 0 30 521 Z M 5530 521 A 10 10 0 0 0 5540 531 L 5560 531 A 10 10 0 0 0 5570 521 A 10 10 0 0 0 5560 511 L 5540 511 A 10 10 0 0 0 5530 521 Z M 11027.996 521 A 10 10 0 0 0 11037.996 531 L 11057.996 531 A 10 10 0 0 0 11067.996 521 A 10 10 0 0 0 11057.996 511 L 11037.996 511 A 10 10 0 0 0 11027.996 521 Z M 475 10 A 10 10 0 0 0 485 20 L 505 20 A 10 10 0 0 0 515 10 A 10 10 0 0 0 505 0 L 485 0 A 10 10 0 0 0 475 10 Z M 975 10 A 10 10 0 0 0 985 20 L 1005 20 A 10 10 0 0 0 1015 10 A 10 10 0 0 0 1005 0 L 985 0 A 10 10 0 0 0 975 10 Z M 1475 10 A 10 10 0 0 0 1485 20 L 1505 20 A 10 10 0 0 0 1515 10 A 10 10 0 0 0 1505 0 L 1485 0 A 10 10 0 0 0 1475 10 Z M 1975 10 A 10 10 0 0 0 1985 20 L 2005 20 A 10 10 0 0 0 2015 10 A 10 10 0 0 0 2005 0 L 1985 0 A 10 10 0 0 0 1975 10 Z M 2475 10 A 10 10 0 0 0 2485 20 L 2505 20 A 10 10 0 0 0 2515 10 A 10 10 0 0 0 2505 0 L 2485 0 A 10 10 0 0 0 2475 10 Z M 2975 10 A 10 10 0 0 0 2985 20 L 3005 20 A 10 10 0 0 0 3015 10 A 10 10 0 0 0 3005 0 L 2985 0 A 10 10 0 0 0 2975 10 Z M 3475 10 A 10 10 0 0 0 3485 20 L 3505 20 A 10 10 0 0 0 3515 10 A 10 10 0 0 0 3505 0 L 3485 0 A 10 10 0 0 0 3475 10 Z M 3975 10 A 10 10 0 0 0 3985 20 L 4005 20 A 10 10 0 0 0 4015 10 A 10 10 0 0 0 4005 0 L 3985 0 A 10 10 0 0 0 3975 10 Z M 4475 10 A 10 10 0 0 0 4485 20 L 4505 20 A 10 10 0 0 0 4515 10 A 10 10 0 0 0 4505 0 L 4485 0 A 10 10 0 0 0 4475 10 Z M 4975 10 A 10 10 0 0 0 4985 20 L 5005 20 A 10 10 0 0 0 5015 10 A 10 10 0 0 0 5005 0 L 4985 0 A 10 10 0 0 0 4975 10 Z M 6030 10 A 10 10 0 0 0 6040 20 L 6060 20 A 10 10 0 0 0 6070 10 A 10 10 0 0 0 6060 0 L 6040 0 A 10 10 0 0 0 6030 10 Z M 6530 10 A 10 10 0 0 0 6540 20 L 6560 20 A 10 10 0 0 0 6570 10 A 10 10 0 0 0 6560 0 L 6540 0 A 10 10 0 0 0 6530 10 Z M 7030 10 A 10 10 0 0 0 7040 20 L 7060 20 A 10 10 0 0 0 7070 10 A 10 10 0 0 0 7060 0 L 7040 0 A 10 10 0 0 0 7030 10 Z M 7530 10 A 10 10 0 0 0 7540 20 L 7560 20 A 10 10 0 0 0 7570 10 A 10 10 0 0 0 7560 0 L 7540 0 A 10 10 0 0 0 7530 10 Z M 8030 10 A 10 10 0 0 0 8040 20 L 8060 20 A 10 10 0 0 0 8070 10 A 10 10 0 0 0 8060 0 L 8040 0 A 10 10 0 0 0 8030 10 Z M 8530 10 A 10 10 0 0 0 8540 20 L 8560 20 A 10 10 0 0 0 8570 10 A 10 10 0 0 0 8560 0 L 8540 0 A 10 10 0 0 0 8530 10 Z M 9030 10 A 10 10 0 0 0 9040 20 L 9060 20 A 10 10 0 0 0 9070 10 A 10 10 0 0 0 9060 0 L 9040 0 A 10 10 0 0 0 9030 10 Z M 9530 10 A 10 10 0 0 0 9540 20 L 9560 20 A 10 10 0 0 0 9570 10 A 10 10 0 0 0 9560 0 L 9540 0 A 10 10 0 0 0 9530 10 Z M 10030 10 A 10 10 0 0 0 10040 20 L 10060 20 A 10 10 0 0 0 10070 10 A 10 10 0 0 0 10060 0 L 10040 0 A 10 10 0 0 0 10030 10 Z M 10530 10 A 10 10 0 0 0 10540 20 L 10560 20 A 10 10 0 0 0 10570 10 A 10 10 0 0 0 10560 0 L 10540 0 A 10 10 0 0 0 10530 10 Z M 475 521 A 10 10 0 0 0 485 531 L 505 531 A 10 10 0 0 0 515 521 A 10 10 0 0 0 505 511 L 485 511 A 10 10 0 0 0 475 521 Z M 975 521 A 10 10 0 0 0 985 531 L 1005 531 A 10 10 0 0 0 1015 521 A 10 10 0 0 0 1005 511 L 985 511 A 10 10 0 0 0 975 521 Z M 1475 521 A 10 10 0 0 0 1485 531 L 1505 531 A 10 10 0 0 0 1515 521 A 10 10 0 0 0 1505 511 L 1485 511 A 10 10 0 0 0 1475 521 Z M 1975 521 A 10 10 0 0 0 1985 531 L 2005 531 A 10 10 0 0 0 2015 521 A 10 10 0 0 0 2005 511 L 1985 511 A 10 10 0 0 0 1975 521 Z M 2475 521 A 10 10 0 0 0 2485 531 L 2505 531 A 10 10 0 0 0 2515 521 A 10 10 0 0 0 2505 511 L 2485 511 A 10 10 0 0 0 2475 521 Z M 2975 521 A 10 10 0 0 0 2985 531 L 3005 531 A 10 10 0 0 0 3015 521 A 10 10 0 0 0 3005 511 L 2985 511 A 10 10 0 0 0 2975 521 Z M 3475 521 A 10 10 0 0 0 3485 531 L 3505 531 A 10 10 0 0 0 3515 521 A 10 10 0 0 0 3505 511 L 3485 511 A 10 10 0 0 0 3475 521 Z M 3975 521 A 10 10 0 0 0 3985 531 L 4005 531 A 10 10 0 0 0 4015 521 A 10 10 0 0 0 4005 511 L 3985 511 A 10 10 0 0 0 3975 521 Z M 4475 521 A 10 10 0 0 0 4485 531 L 4505 531 A 10 10 0 0 0 4515 521 A 10 10 0 0 0 4505 511 L 4485 511 A 10 10 0 0 0 4475 521 Z M 4975 521 A 10 10 0 0 0 4985 531 L 5005 531 A 10 10 0 0 0 5015 521 A 10 10 0 0 0 5005 511 L 4985 511 A 10 10 0 0 0 4975 521 Z M 6030 521 A 10 10 0 0 0 6040 531 L 6060 531 A 10 10 0 0 0 6070 521 A 10 10 0 0 0 6060 511 L 6040 511 A 10 10 0 0 0 6030 521 Z M 6530 521 A 10 10 0 0 0 6540 531 L 6560 531 A 10 10 0 0 0 6570 521 A 10 10 0 0 0 6560 511 L 6540 511 A 10 10 0 0 0 6530 521 Z M 7030 521 A 10 10 0 0 0 7040 531 L 7060 531 A 10 10 0 0 0 7070 521 A 10 10 0 0 0 7060 511 L 7040 511 A 10 10 0 0 0 7030 521 Z M 7530 521 A 10 10 0 0 0 7540 531 L 7560 531 A 10 10 0 0 0 7570 521 A 10 10 0 0 0 7560 511 L 7540 511 A 10 10 0 0 0 7530 521 Z M 8030 521 A 10 10 0 0 0 8040 531 L 8060 531 A 10 10 0 0 0 8070 521 A 10 10 0 0 0 8060 511 L 8040 511 A 10 10 0 0 0 8030 521 Z M 8530 521 A 10 10 0 0 0 8540 531 L 8560 531 A 10 10 0 0 0 8570 521 A 10 10 0 0 0 8560 511 L 8540 511 A 10 10 0 0 0 8530 521 Z M 9030 521 A 10 10 0 0 0 9040 531 L 9060 531 A 10 10 0 0 0 9070 521 A 10 10 0 0 0 9060 511 L 9040 511 A 10 10 0 0 0 9030 521 Z M 9530 521 A 10 10 0 0 0 9540 531 L 9560 531 A 10 10 0 0 0 9570 521 A 10 10 0 0 0 9560 511 L 9540 511 A 10 10 0 0 0 9530 521 Z M 10030 521 A 10 10 0 0 0 10040 531 L 10060 531 A 10 10 0 0 0 10070 521 A 10 10 0 0 0 10060 511 L 10040 511 A 10 10 0 0 0 10030 521 Z M 10530 521 A 10 10 0 0 0 10540 531 L 10560 531 A 10 10 0 0 0 10570 521 A 10 10 0 0 0 10560 511 L 10540 511 A 10 10 0 0 0 10530 521 Z M 141.3 10 A 10 10 0 0 0 151.3 20 L 171.3 20 A 10 10 0 0 0 181.3 10 A 10 10 0 0 0 171.3 0 L 151.3 0 A 10 10 0 0 0 141.3 10 Z M 252.5 10 A 10 10 0 0 0 262.5 20 L 282.5 20 A 10 10 0 0 0 292.5 10 A 10 10 0 0 0 282.5 0 L 262.5 0 A 10 10 0 0 0 252.5 10 Z M 363.7 10 A 10 10 0 0 0 373.7 20 L 393.7 20 A 10 10 0 0 0 403.7 10 A 10 10 0 0 0 393.7 0 L 373.7 0 A 10 10 0 0 0 363.7 10 Z M 725 10 A 10 10 0 0 0 735 20 L 755 20 A 10 10 0 0 0 765 10 A 10 10 0 0 0 755 0 L 735 0 A 10 10 0 0 0 725 10 Z M 1225 10 A 10 10 0 0 0 1235 20 L 1255 20 A 10 10 0 0 0 1265 10 A 10 10 0 0 0 1255 0 L 1235 0 A 10 10 0 0 0 1225 10 Z M 1725 10 A 10 10 0 0 0 1735 20 L 1755 20 A 10 10 0 0 0 1765 10 A 10 10 0 0 0 1755 0 L 1735 0 A 10 10 0 0 0 1725 10 Z M 2225 10 A 10 10 0 0 0 2235 20 L 2255 20 A 10 10 0 0 0 2265 10 A 10 10 0 0 0 2255 0 L 2235 0 A 10 10 0 0 0 2225 10 Z M 2725 10 A 10 10 0 0 0 2735 20 L 2755 20 A 10 10 0 0 0 2765 10 A 10 10 0 0 0 2755 0 L 2735 0 A 10 10 0 0 0 2725 10 Z M 3225 10 A 10 10 0 0 0 3235 20 L 3255 20 A 10 10 0 0 0 3265 10 A 10 10 0 0 0 3255 0 L 3235 0 A 10 10 0 0 0 3225 10 Z M 3725 10 A 10 10 0 0 0 3735 20 L 3755 20 A 10 10 0 0 0 3765 10 A 10 10 0 0 0 3755 0 L 3735 0 A 10 10 0 0 0 3725 10 Z M 4225 10 A 10 10 0 0 0 4235 20 L 4255 20 A 10 10 0 0 0 4265 10 A 10 10 0 0 0 4255 0 L 4235 0 A 10 10 0 0 0 4225 10 Z M 4725 10 A 10 10 0 0 0 4735 20 L 4755 20 A 10 10 0 0 0 4765 10 A 10 10 0 0 0 4755 0 L 4735 0 A 10 10 0 0 0 4725 10 Z M 5225 10 A 10 10 0 0 0 5235 20 L 5255 20 A 10 10 0 0 0 5265 10 A 10 10 0 0 0 5255 0 L 5235 0 A 10 10 0 0 0 5225 10 Z M 141.3 521 A 10 10 0 0 0 151.3 531 L 171.3 531 A 10 10 0 0 0 181.3 521 A 10 10 0 0 0 171.3 511 L 151.3 511 A 10 10 0 0 0 141.3 521 Z M 252.5 521 A 10 10 0 0 0 262.5 531 L 282.5 531 A 10 10 0 0 0 292.5 521 A 10 10 0 0 0 282.5 511 L 262.5 511 A 10 10 0 0 0 252.5 521 Z M 363.7 521 A 10 10 0 0 0 373.7 531 L 393.7 531 A 10 10 0 0 0 403.7 521 A 10 10 0 0 0 393.7 511 L 373.7 511 A 10 10 0 0 0 363.7 521 Z M 725 521 A 10 10 0 0 0 735 531 L 755 531 A 10 10 0 0 0 765 521 A 10 10 0 0 0 755 511 L 735 511 A 10 10 0 0 0 725 521 Z M 1225 521 A 10 10 0 0 0 1235 531 L 1255 531 A 10 10 0 0 0 1265 521 A 10 10 0 0 0 1255 511 L 1235 511 A 10 10 0 0 0 1225 521 Z M 1725 521 A 10 10 0 0 0 1735 531 L 1755 531 A 10 10 0 0 0 1765 521 A 10 10 0 0 0 1755 511 L 1735 511 A 10 10 0 0 0 1725 521 Z M 2225 521 A 10 10 0 0 0 2235 531 L 2255 531 A 10 10 0 0 0 2265 521 A 10 10 0 0 0 2255 511 L 2235 511 A 10 10 0 0 0 2225 521 Z M 2725 521 A 10 10 0 0 0 2735 531 L 2755 531 A 10 10 0 0 0 2765 521 A 10 10 0 0 0 2755 511 L 2735 511 A 10 10 0 0 0 2725 521 Z M 3225 521 A 10 10 0 0 0 3235 531 L 3255 531 A 10 10 0 0 0 3265 521 A 10 10 0 0 0 3255 511 L 3235 511 A 10 10 0 0 0 3225 521 Z M 3725 521 A 10 10 0 0 0 3735 531 L 3755 531 A 10 10 0 0 0 3765 521 A 10 10 0 0 0 3755 511 L 3735 511 A 10 10 0 0 0 3725 521 Z M 4225 521 A 10 10 0 0 0 4235 531 L 4255 531 A 10 10 0 0 0 4265 521 A 10 10 0 0 0 4255 511 L 4235 511 A 10 10 0 0 0 4225 521 Z M 4725 521 A 10 10 0 0 0 4735 531 L 4755 531 A 10 10 0 0 0 4765 521 A 10 10 0 0 0 4755 511 L 4735 511 A 10 10 0 0 0 4725 521 Z M 5225 521 A 10 10 0 0 0 5235 531 L 5255 531 A 10 10 0 0 0 5265 521 A 10 10 0 0 0 5255 511 L 5235 511 A 10 10 0 0 0 5225 521 Z M 850 10 A 10 10 0 0 0 860 20 L 880 20 A 10 10 0 0 0 890 10 A 10 10 0 0 0 880 0 L 860 0 A 10 10 0 0 0 850 10 Z M 1850 10 A 10 10 0 0 0 1860 20 L 1880 20 A 10 10 0 0 0 1890 10 A 10 10 0 0 0 1880 0 L 1860 0 A 10 10 0 0 0 1850 10 Z M 2850 10 A 10 10 0 0 0 2860 20 L 2880 20 A 10 10 0 0 0 2890 10 A 10 10 0 0 0 2880 0 L 2860 0 A 10 10 0 0 0 2850 10 Z M 3850 10 A 10 10 0 0 0 3860 20 L 3880 20 A 10 10 0 0 0 3890 10 A 10 10 0 0 0 3880 0 L 3860 0 A 10 10 0 0 0 3850 10 Z M 5100 10 A 10 10 0 0 0 5110 20 L 5130 20 A 10 10 0 0 0 5140 10 A 10 10 0 0 0 5130 0 L 5110 0 A 10 10 0 0 0 5100 10 Z M 5850 10 A 10 10 0 0 0 5860 20 L 5880 20 A 10 10 0 0 0 5890 10 A 10 10 0 0 0 5880 0 L 5860 0 A 10 10 0 0 0 5850 10 Z M 850 521 A 10 10 0 0 0 860 531 L 880 531 A 10 10 0 0 0 890 521 A 10 10 0 0 0 880 511 L 860 511 A 10 10 0 0 0 850 521 Z M 1850 521 A 10 10 0 0 0 1860 531 L 1880 531 A 10 10 0 0 0 1890 521 A 10 10 0 0 0 1880 511 L 1860 511 A 10 10 0 0 0 1850 521 Z M 2850 521 A 10 10 0 0 0 2860 531 L 2880 531 A 10 10 0 0 0 2890 521 A 10 10 0 0 0 2880 511 L 2860 511 A 10 10 0 0 0 2850 521 Z M 3850 521 A 10 10 0 0 0 3860 531 L 3880 531 A 10 10 0 0 0 3890 521 A 10 10 0 0 0 3880 511 L 3860 511 A 10 10 0 0 0 3850 521 Z M 5100 521 A 10 10 0 0 0 5110 531 L 5130 531 A 10 10 0 0 0 5140 521 A 10 10 0 0 0 5130 511 L 5110 511 A 10 10 0 0 0 5100 521 Z M 5850 521 A 10 10 0 0 0 5860 531 L 5880 531 A 10 10 0 0 0 5890 521 A 10 10 0 0 0 5880 511 L 5860 511 A 10 10 0 0 0 5850 521 Z M 4350 10 A 10 10 0 0 0 4360 20 L 4380 20 A 10 10 0 0 0 4390 10 A 10 10 0 0 0 4380 0 L 4360 0 A 10 10 0 0 0 4350 10 Z M 600 10 A 10 10 0 0 0 610 20 L 630 20 A 10 10 0 0 0 640 10 A 10 10 0 0 0 630 0 L 610 0 A 10 10 0 0 0 600 10 Z M 3580 10 A 10 10 0 0 0 3590 20 L 3610 20 A 10 10 0 0 0 3620 10 A 10 10 0 0 0 3610 0 L 3590 0 A 10 10 0 0 0 3580 10 Z M 5280 10 A 10 10 0 0 0 5290 20 L 5310 20 A 10 10 0 0 0 5320 10 A 10 10 0 0 0 5310 0 L 5290 0 A 10 10 0 0 0 5280 10 Z M 5780 10 A 10 10 0 0 0 5790 20 L 5810 20 A 10 10 0 0 0 5820 10 A 10 10 0 0 0 5810 0 L 5790 0 A 10 10 0 0 0 5780 10 Z M 7480 10 A 10 10 0 0 0 7490 20 L 7510 20 A 10 10 0 0 0 7520 10 A 10 10 0 0 0 7510 0 L 7490 0 A 10 10 0 0 0 7480 10 Z M 3580 521 A 10 10 0 0 0 3590 531 L 3610 531 A 10 10 0 0 0 3620 521 A 10 10 0 0 0 3610 511 L 3590 511 A 10 10 0 0 0 3580 521 Z M 5280 521 A 10 10 0 0 0 5290 531 L 5310 531 A 10 10 0 0 0 5320 521 A 10 10 0 0 0 5310 511 L 5290 511 A 10 10 0 0 0 5280 521 Z M 5780 521 A 10 10 0 0 0 5790 531 L 5810 531 A 10 10 0 0 0 5820 521 A 10 10 0 0 0 5810 511 L 5790 511 A 10 10 0 0 0 5780 521 Z M 7480 521 A 10 10 0 0 0 7490 531 L 7510 531 A 10 10 0 0 0 7520 521 A 10 10 0 0 0 7510 511 L 7490 511 A 10 10 0 0 0 7480 521 Z M 4405 10 A 10 10 0 0 0 4415 20 L 4435 20 A 10 10 0 0 0 4445 10 A 10 10 0 0 0 4435 0 L 4415 0 A 10 10 0 0 0 4405 10 Z M 4885 10 A 10 10 0 0 0 4895 20 L 4915 20 A 10 10 0 0 0 4925 10 A 10 10 0 0 0 4915 0 L 4895 0 A 10 10 0 0 0 4885 10 Z M 6175 10 A 10 10 0 0 0 6185 20 L 6205 20 A 10 10 0 0 0 6215 10 A 10 10 0 0 0 6205 0 L 6185 0 A 10 10 0 0 0 6175 10 Z M 6655 10 A 10 10 0 0 0 6665 20 L 6685 20 A 10 10 0 0 0 6695 10 A 10 10 0 0 0 6685 0 L 6665 0 A 10 10 0 0 0 6655 10 Z M 8040 20 A 10 10 0 0 1 8030 10 A 10 10 0 0 1 8040 0 L 8060 0 A 10 10 0 0 1 8070 10 A 10 10 0 0 1 8060 20 L 8040 20 Z M 8040 531 A 10 10 0 0 1 8030 521 A 10 10 0 0 1 8040 511 L 8060 511 A 10 10 0 0 1 8070 521 A 10 10 0 0 1 8060 531 L 8040 531 Z" id="red" stroke="red" style="stroke:red" vector-effect="non-scaling-stroke" />
        <g id="captions">
            <text alignment-baseline="middle" text-anchor="middle" transform="rotate(0,50,10)" x="50" y="10" stroke="red" style="stroke:red">G1S1</text>
            <text alignment-baseline="middle" text-anchor="middle" transform="rotate(0,5550,10)" x="5550" y="10" stroke="red" style="stroke:red">G1S2</text>
            <text alignment-baseline="middle" text-anchor="middle" transform="rotate(0,11050.04,10)" x="11050.04" y="10" stroke="red" style="stroke:red">G1S3</text>
            <text alignment-baseline="middle" text-anchor="middle" transform="rotate(0,50,521)" x="50" y="521" stroke="red" style="stroke:red">G2S1</text>
            <text alignment-baseline="middle" text-anchor="middle" transform="rotate(0,5550,521)" x="5550" y="521" stroke="red" style="stroke:red">G2S2</text>
            <text alignment-baseline="middle" text-anchor="middle" transform="rotate(0,11047.996,521)" x="11047.996" y="521" stroke="red" style="stroke:red">G2S3</text>
            <text alignment-baseline="middle" text-anchor="middle" transform="rotate(0,495,10)" x="495" y="10" stroke="red" style="stroke:red">G1D1</text>
            <text alignment-baseline="middle" text-anchor="middle" transform="rotate(0,995,10)" x="995" y="10" stroke="red" style="stroke:red">G1D2</text>
            <text alignment-baseline="middle" text-anchor="middle" transform="rotate(0,1495,10)" x="1495" y="10" stroke="red" style="stroke:red">G1D3</text>
            <text alignment-baseline="middle" text-anchor="middle" transform="rotate(0,1995,10)" x="1995" y="10" stroke="red" style="stroke:red">G1D4</text>
            <text alignment-baseline="middle" text-anchor="middle" transform="rotate(0,2495,10)" x="2495" y="10" stroke="red" style="stroke:red">G1D5</text>
            <text alignment-baseline="middle" text-anchor="middle" transform="rotate(0,2995,10)" x="2995" y="10" stroke="red" style="stroke:red">G1D6</text>
            <text alignment-baseline="middle" text-anchor="middle" transform="rotate(0,3495,10)" x="3495" y="10" stroke="red" style="stroke:red">G1D7</text>
            <text alignment-baseline="middle" text-anchor="middle" transform="rotate(0,3995,10)" x="3995" y="10" stroke="red" style="stroke:red">G1D8</text>
            <text alignment-baseline="middle" text-anchor="middle" transform="rotate(0,4495,10)" x="4495" y="10" stroke="red" style="stroke:red">G1D9</text>
            <text alignment-baseline="middle" text-anchor="middle" transform="rotate(0,4995,10)" x="4995" y="10" stroke="red" style="stroke:red">G1D10</text>
            <text alignment-baseline="middle" text-anchor="middle" transform="rotate(0,6050,10)" x="6050" y="10" stroke="red" style="stroke:red">G1D11</text>
            <text alignment-baseline="middle" text-anchor="middle" transform="rotate(0,6550,10)" x="6550" y="10" stroke="red" style="stroke:red">G1D12</text>
            <text alignment-baseline="middle" text-anchor="middle" transform="rotate(0,7050,10)" x="7050" y="10" stroke="red" style="stroke:red">G1D13</text>
            <text alignment-baseline="middle" text-anchor="middle" transform="rotate(0,7550,10)" x="7550" y="10" stroke="red" style="stroke:red">G1D14</text>
            <text alignment-baseline="middle" text-anchor="middle" transform="rotate(0,8050,10)" x="8050" y="10" stroke="red" style="stroke:red">G1D15</text>
            <text alignment-baseline="middle" text-anchor="middle" transform="rotate(0,8550,10)" x="8550" y="10" stroke="red" style="stroke:red">G1D16</text>
            <text alignment-baseline="middle" text-anchor="middle" transform="rotate(0,9050,10)" x="9050" y="10" stroke="red" style="stroke:red">G1D17</text>
            <text alignment-baseline="middle" text-anchor="middle" transform="rotate(0,9550,10)" x="9550" y="10" stroke="red" style="stroke:red">G1D18</text>
            <text alignment-baseline="middle" text-anchor="middle" transform="rotate(0,10050,10)" x="10050" y="10" stroke="red" style="stroke:red">G1D19</text>
            <text alignment-baseline="middle" text-anchor="middle" transform="rotate(0,10550,10)" x="10550" y="10" stroke="red" style="stroke:red">G1D20</text>
            <text alignment-baseline="middle" text-anchor="middle" transform="rotate(0,495,521)" x="495" y="521" stroke="red" style="stroke:red">G2D1</text>
            <text alignment-baseline="middle" text-anchor="middle" transform="rotate(0,995,521)" x="995" y="521" stroke="red" style="stroke:red">G2D2</text>
            <text alignment-baseline="middle" text-anchor="middle" transform="rotate(0,1495,521)" x="1495" y="521" stroke="red" style="stroke:red">G2D3</text>
            <text alignment-baseline="middle" text-anchor="middle" transform="rotate(0,1995,521)" x="1995" y="521" stroke="red" style="stroke:red">G2D4</text>
            <text alignment-baseline="middle" text-anchor="middle" transform="rotate(0,2495,521)" x="2495" y="521" stroke="red" style="stroke:red">G2D5</text>
            <text alignment-baseline="middle" text-anchor="middle" transform="rotate(0,2995,521)" x="2995" y="521" stroke="red" style="stroke:red">G2D6</text>
            <text alignment-baseline="middle" text-anchor="middle" transform="rotate(0,3495,521)" x="3495" y="521" stroke="red" style="stroke:red">G2D7</text>
            <text alignment-baseline="middle" text-anchor="middle" transform="rotate(0,3995,521)" x="3995" y="521" stroke="red" style="stroke:red">G2D8</text>
            <text alignment-baseline="middle" text-anchor="middle" transform="rotate(0,4495,521)" x="4495" y="521" stroke="red" style="stroke:red">G2D9</text>
            <text alignment-baseline="middle" text-anchor="middle" transform="rotate(0,4995,521)" x="4995" y="521" stroke="red" style="stroke:red">G2D10</text>
            <text alignment-baseline="middle" text-anchor="middle" transform="rotate(0,6050,521)" x="6050" y="521" stroke="red" style="stroke:red">G2D11</text>
            <text alignment-baseline="middle" text-anchor="middle" transform="rotate(0,6550,521)" x="6550" y="521" stroke="red" style="stroke:red">G2D12</text>
            <text alignment-baseline="middle" text-anchor="middle" transform="rotate(0,7050,521)" x="7050" y="521" stroke="red" style="stroke:red">G2D13</text>
            <text alignment-baseline="middle" text-anchor="middle" transform="rotate(0,7550,521)" x="7550" y="521" stroke="red" style="stroke:red">G2D14</text>
            <text alignment-baseline="middle" text-anchor="middle" transform="rotate(0,8050,521)" x="8050" y="521" stroke="red" style="stroke:red">G2D15</text>
            <text alignment-baseline="middle" text-anchor="middle" transform="rotate(0,8550,521)" x="8550" y="521" stroke="red" style="stroke:red">G2D16</text>
            <text alignment-baseline="middle" text-anchor="middle" transform="rotate(0,9050,521)" x="9050" y="521" stroke="red" style="stroke:red">G2D17</text>
            <text alignment-baseline="middle" text-anchor="middle" transform="rotate(0,9550,521)" x="9550" y="521" stroke="red" style="stroke:red">G2D18</text>
            <text alignment-baseline="middle" text-anchor="middle" transform="rotate(0,10050,521)" x="10050" y="521" stroke="red" style="stroke:red">G2D19</text>
            <text alignment-baseline="middle" text-anchor="middle" transform="rotate(0,10550,521)" x="10550" y="521" stroke="red" style="stroke:red">G2D20</text>
            <text alignment-baseline="middle" text-anchor="middle" transform="rotate(0,161.3,10)" x="161.3" y="10" stroke="red" style="stroke:red">G1V1</text>
            <text alignment-baseline="middle" text-anchor="middle" transform="rotate(0,272.5,10)" x="272.5" y="10" stroke="red" style="stroke:red">G1V2</text>
            <text alignment-baseline="middle" text-anchor="middle" transform="rotate(0,383.7,10)" x="383.7" y="10" stroke="red" style="stroke:red">G1V3</text>
            <text alignment-baseline="middle" text-anchor="middle" transform="rotate(0,745,10)" x="745" y="10" stroke="red" style="stroke:red">G1V4</text>
            <text alignment-baseline="middle" text-anchor="middle" transform="rotate(0,1245,10)" x="1245" y="10" stroke="red" style="stroke:red">G1V5</text>
            <text alignment-baseline="middle" text-anchor="middle" transform="rotate(0,1745,10)" x="1745" y="10" stroke="red" style="stroke:red">G1V6</text>
            <text alignment-baseline="middle" text-anchor="middle" transform="rotate(0,2245,10)" x="2245" y="10" stroke="red" style="stroke:red">G1V7</text>
            <text alignment-baseline="middle" text-anchor="middle" transform="rotate(0,2745,10)" x="2745" y="10" stroke="red" style="stroke:red">G1V8</text>
            <text alignment-baseline="middle" text-anchor="middle" transform="rotate(0,3245,10)" x="3245" y="10" stroke="red" style="stroke:red">G1V9</text>
            <text alignment-baseline="middle" text-anchor="middle" transform="rotate(0,3745,10)" x="3745" y="10" stroke="red" style="stroke:red">G1V10</text>
            <text alignment-baseline="middle" text-anchor="middle" transform="rotate(0,4245,10)" x="4245" y="10" stroke="red" style="stroke:red">G1V11</text>
            <text alignment-baseline="middle" text-anchor="middle" transform="rotate(0,4745,10)" x="4745" y="10" stroke="red" style="stroke:red">G1V12</text>
            <text alignment-baseline="middle" text-anchor="middle" transform="rotate(0,5245,10)" x="5245" y="10" stroke="red" style="stroke:red">G1V13</text>
            <text alignment-baseline="middle" text-anchor="middle" transform="rotate(0,8050,10)" x="8050" y="10" stroke="red" style="stroke:red">G1V14</text>
            <text alignment-baseline="middle" text-anchor="middle" transform="rotate(0,161.3,521)" x="161.3" y="521" stroke="red" style="stroke:red">G2V1</text>
            <text alignment-baseline="middle" text-anchor="middle" transform="rotate(0,272.5,521)" x="272.5" y="521" stroke="red" style="stroke:red">G2V2</text>
            <text alignment-baseline="middle" text-anchor="middle" transform="rotate(0,383.7,521)" x="383.7" y="521" stroke="red" style="stroke:red">G2V3</text>
            <text alignment-baseline="middle" text-anchor="middle" transform="rotate(0,745,521)" x="745" y="521" stroke="red" style="stroke:red">G2V4</text>
            <text alignment-baseline="middle" text-anchor="middle" transform="rotate(0,1245,521)" x="1245" y="521" stroke="red" style="stroke:red">G2V5</text>
            <text alignment-baseline="middle" text-anchor="middle" transform="rotate(0,1745,521)" x="1745" y="521" stroke="red" style="stroke:red">G2V6</text>
            <text alignment-baseline="middle" text-anchor="middle" transform="rotate(0,2245,521)" x="2245" y="521" stroke="red" style="stroke:red">G2V7</text>
            <text alignment-baseline="middle" text-anchor="middle" transform="rotate(0,2745,521)" x="2745" y="521" stroke="red" style="stroke:red">G2V8</text>
            <text alignment-baseline="middle" text-anchor="middle" transform="rotate(0,3245,521)" x="3245" y="521" stroke="red" style="stroke:red">G2V9</text>
            <text alignment-baseline="middle" text-anchor="middle" transform="rotate(0,3745,521)" x="3745" y="521" stroke="red" style="stroke:red">G2V10</text>
            <text alignment-baseline="middle" text-anchor="middle" transform="rotate(0,4245,521)" x="4245" y="521" stroke="red" style="stroke:red">G2V11</text>
            <text alignment-baseline="middle" text-anchor="middle" transform="rotate(0,4745,521)" x="4745" y="521" stroke="red" style="stroke:red">G2V12</text>
            <text alignment-baseline="middle" text-anchor="middle" transform="rotate(0,5245,521)" x="5245" y="521" stroke="red" style="stroke:red">G2V13</text>
            <text alignment-baseline="middle" text-anchor="middle" transform="rotate(0,8050,521)" x="8050" y="521" stroke="red" style="stroke:red">G2V14</text>
            <text alignment-baseline="middle" text-anchor="middle" transform="rotate(0,870,10)" x="870" y="10" stroke="red" style="stroke:red">G1SP1</text>
            <text alignment-baseline="middle" text-anchor="middle" transform="rotate(0,1870,10)" x="1870" y="10" stroke="red" style="stroke:red">G1SP2</text>
            <text alignment-baseline="middle" text-anchor="middle" transform="rotate(0,2870,10)" x="2870" y="10" stroke="red" style="stroke:red">G1SP3</text>
            <text alignment-baseline="middle" text-anchor="middle" transform="rotate(0,3870,10)" x="3870" y="10" stroke="red" style="stroke:red">G1SP4</text>
            <text alignment-baseline="middle" text-anchor="middle" transform="rotate(0,5120,10)" x="5120" y="10" stroke="red" style="stroke:red">G1SP5</text>
            <text alignment-baseline="middle" text-anchor="middle" transform="rotate(0,5870,10)" x="5870" y="10" stroke="red" style="stroke:red">G1SP6</text>
            <text alignment-baseline="middle" text-anchor="middle" transform="rotate(0,870,521)" x="870" y="521" stroke="red" style="stroke:red">G2SP1</text>
            <text alignment-baseline="middle" text-anchor="middle" transform="rotate(0,1870,521)" x="1870" y="521" stroke="red" style="stroke:red">G2SP2</text>
            <text alignment-baseline="middle" text-anchor="middle" transform="rotate(0,2870,521)" x="2870" y="521" stroke="red" style="stroke:red">G2SP3</text>
            <text alignment-baseline="middle" text-anchor="middle" transform="rotate(0,3870,521)" x="3870" y="521" stroke="red" style="stroke:red">G2SP4</text>
            <text alignment-baseline="middle" text-anchor="middle" transform="rotate(0,5120,521)" x="5120" y="521" stroke="red" style="stroke:red">G2SP5</text>
            <text alignment-baseline="middle" text-anchor="middle" transform="rotate(0,5870,521)" x="5870" y="521" stroke="red" style="stroke:red">G2SP6</text>
            <text alignment-baseline="middle" text-anchor="middle" transform="rotate(0,4370,10)" x="4370" y="10" stroke="red" style="stroke:red">G1TF1</text>
            <text alignment-baseline="middle" text-anchor="middle" transform="rotate(0,620,10)" x="620" y="10" stroke="red" style="stroke:red">G1BF1</text>
            <text alignment-baseline="middle" text-anchor="middle" transform="rotate(0,3600,10)" x="3600" y="10" stroke="red" style="stroke:red">G1H1</text>
            <text alignment-baseline="middle" text-anchor="middle" transform="rotate(0,5300,10)" x="5300" y="10" stroke="red" style="stroke:red">G1H2</text>
            <text alignment-baseline="middle" text-anchor="middle" transform="rotate(0,5800,10)" x="5800" y="10" stroke="red" style="stroke:red">G1H3</text>
            <text alignment-baseline="middle" text-anchor="middle" transform="rotate(0,7500,10)" x="7500" y="10" stroke="red" style="stroke:red">G1H4</text>
            <text alignment-baseline="middle" text-anchor="middle" transform="rotate(0,3600,521)" x="3600" y="521" stroke="red" style="stroke:red">G2H1</text>
            <text alignment-baseline="middle" text-anchor="middle" transform="rotate(0,5300,521)" x="5300" y="521" stroke="red" style="stroke:red">G2H2</text>
            <text alignment-baseline="middle" text-anchor="middle" transform="rotate(0,5800,521)" x="5800" y="521" stroke="red" style="stroke:red">G2H3</text>
            <text alignment-baseline="middle" text-anchor="middle" transform="rotate(0,7500,521)" x="7500" y="521" stroke="red" style="stroke:red">G2H4</text>
            <text alignment-baseline="middle" text-anchor="middle" transform="rotate(0,4425,10)" x="4425" y="10" stroke="red" style="stroke:red">G1T1</text>
            <text alignment-baseline="middle" text-anchor="middle" transform="rotate(0,4905,10)" x="4905" y="10" stroke="red" style="stroke:red">G1T2</text>
            <text alignment-baseline="middle" text-anchor="middle" transform="rotate(0,6195,10)" x="6195" y="10" stroke="red" style="stroke:red">G1T3</text>
            <text alignment-baseline="middle" text-anchor="middle" transform="rotate(0,6675,10)" x="6675" y="10" stroke="red" style="stroke:red">G1T4</text>
        </g>
    </g>
</svg>